<?xml version="1.0"?>
<svg xmlns="http://www.w3.org/2000/svg" height="512px" viewBox="0 0 512 512" width="512px" class=""><g><path d="m149.332031 149.332031c0 23.566407-19.101562 42.667969-42.664062 42.667969-23.566407 0-42.667969-19.101562-42.667969-42.667969 0-23.5625 19.101562-42.664062 42.667969-42.664062 23.5625 0 42.664062 19.101562 42.664062 42.664062zm0 0" data-original="#000000" class="active-path" data-old_color="#000000" fill="#B8C2C9"/><path d="m202.667969 373.332031c0-83.15625 59.816406-152.511719 138.664062-167.550781v-141.78125c0-35.285156-28.714843-64-64-64h-213.332031c-35.285156 0-64 28.714844-64 64v298.667969c0 35.285156 28.714844 64 64 64h147.328125c-5.546875-16.8125-8.660156-34.6875-8.660156-53.335938zm-101.546875-113.492187c-14.082032-14.078125-38.828125-14.078125-52.90625 0l-5.546875 5.527344v-201.367188c0-11.777344 9.554687-21.332031 21.332031-21.332031h213.332031c11.777344 0 21.335938 9.554687 21.335938 21.332031v137.367188l-16.214844-16.214844c-14.589844-14.59375-38.335937-14.59375-52.90625 0l-101.546875 101.546875zm0 0" data-original="#000000" class="active-path" data-old_color="#000000" fill="#B8C2C9"/><path d="m373.332031 234.667969c-76.457031 0-138.664062 62.207031-138.664062 138.664062 0 76.460938 62.207031 138.667969 138.664062 138.667969 76.460938 0 138.667969-62.207031 138.667969-138.667969 0-76.457031-62.207031-138.664062-138.667969-138.664062zm58.667969 160h-37.332031v37.332031c0 11.796875-9.539063 21.332031-21.335938 21.332031s-21.332031-9.535156-21.332031-21.332031v-37.332031h-37.332031c-11.796875 0-21.335938-9.539063-21.335938-21.335938s9.539063-21.332031 21.335938-21.332031h37.332031v-37.332031c0-11.796875 9.535156-21.335938 21.332031-21.335938s21.335938 9.539063 21.335938 21.335938v37.332031h37.332031c11.796875 0 21.332031 9.535156 21.332031 21.332031s-9.535156 21.335938-21.332031 21.335938zm0 0" data-original="#000000" class="active-path" data-old_color="#000000" fill="#B8C2C9"/></g> </svg>
