<?xml version="1.0"?>
<svg xmlns="http://www.w3.org/2000/svg" height="30" viewBox="0 0 512 512" width="30"><g><path d="m512 121v-66.003906c0-30.324219-24.671875-54.996094-54.996094-54.996094h-402.007812c-30.324219 0-54.996094 24.671875-54.996094 54.996094v66.003906zm-76-60c8.285156 0 15 6.714844 15 15s-6.714844 15-15 15-15-6.714844-15-15 6.714844-15 15-15zm-60 0c8.285156 0 15 6.714844 15 15s-6.714844 15-15 15-15-6.714844-15-15 6.714844-15 15-15zm-60 0c8.285156 0 15 6.714844 15 15s-6.714844 15-15 15-15-6.714844-15-15 6.714844-15 15-15zm0 0" data-original="#000000" class="active-path" data-old_color="#000000" fill="#FFB229"/><path d="m0 151v306.003906c0 30.324219 24.671875 54.996094 54.996094 54.996094h402.007812c30.324219 0 54.996094-24.671875 54.996094-54.996094v-306.003906zm62.300781 45.046875c0-8.28125 6.714844-15 15-15h358.648438c8.285156 0 15 6.71875 15 15v120c0 8.285156-6.714844 15-15 15h-358.648438c-8.285156 0-15-6.714844-15-15zm387.699219 179.953125c0 8.285156-6.714844 15-15 15h-149c-8.285156 0-15-6.714844-15-15s6.714844-15 15-15h149c8.285156 0 15 6.714844 15 15zm-374-15h149c8.285156 0 15 6.714844 15 15s-6.714844 15-15 15h-149c-8.285156 0-15-6.714844-15-15s6.714844-15 15-15zm150 90h-150c-8.285156 0-15-6.714844-15-15s6.714844-15 15-15h150c8.285156 0 15 6.714844 15 15s-6.714844 15-15 15zm210 0h-150c-8.285156 0-15-6.714844-15-15s6.714844-15 15-15h150c8.285156 0 15 6.714844 15 15s-6.714844 15-15 15zm0 0" data-original="#000000" class="active-path" data-old_color="#000000" fill="#FFB229"/><path d="m92.300781 211.046875h328.648438v90h-328.648438zm0 0" data-original="#000000" class="active-path" data-old_color="#000000" fill="#FFB229"/></g> </svg>
