<svg width="30" height="30" viewBox="0 0 24 48" fill="none" xmlns="http://www.w3.org/2000/svg">
<path d="M21.5999 13.7999C20.1999 13.7999 18.8 13.7999 17.5 13.7999C17.3 13.7999 16.9999 13.9999 16.7999 14.0999C14.3999 15.7999 11.8 15.7999 9.39995 14.0999C9.19995 13.9999 9.09995 13.7999 8.89995 13.7999C7.49995 13.7999 6.09995 13.7999 4.59995 13.7999C3.69995 19.5999 2.89995 25.3999 1.99995 31.1999C1.69995 31.1999 1.19995 31.2999 0.699951 31.2999V40.7999H4.49995V31.2999C2.99995 31.0999 2.99995 31.0999 3.19995 29.9999C3.19995 29.7999 3.39995 29.5999 3.59995 29.5999C4.29995 29.5999 4.99995 29.5999 5.79995 29.5999V47.3999C7.09995 47.3999 8.39995 47.3999 9.59995 47.3999C10.0999 47.3999 10.3 47.2999 10.4 46.7999C10.9 45.0999 11.4999 43.2999 12.0999 41.5999C12.3999 40.5999 12.8 39.5999 13.2 38.3999C13.3 38.6999 13.3 38.7999 13.4 38.8999C14.3 41.4999 15.1 44.1999 16 46.7999C16.1 46.9999 16.3 47.3999 16.5 47.3999C17.8 47.3999 19.1999 47.3999 20.5999 47.3999V29.4999H24C23.2 24.1999 22.3999 18.9999 21.5999 13.7999ZM12.2999 16.5999H14C14 16.8999 14 17.1999 14 17.4999H12.2V16.5999H12.2999ZM14.5 22.9999C14.2 23.6999 14 24.3999 13.7 25.0999C13.5 25.4999 13.1 25.5999 12.9 25.1999C12.5 24.3999 12.1999 23.4999 11.7999 22.6999C12.0999 21.0999 12.2999 19.5999 12.5999 18.1999C12.5999 18.0999 13 17.8999 13.2 17.8999C13.4 17.8999 13.7 18.0999 13.7 18.1999C14 19.5999 14.2 21.0999 14.5 22.4999C14.6 22.6999 14.5 22.7999 14.5 22.9999Z" fill="#FBB040"/>
<path d="M7.30005 6.59995C7.30005 3.29995 9.90005 0.699951 13.2001 0.699951C16.5001 0.699951 19.1 3.29995 19.1 6.59995C19.1 9.89995 16.5001 12.5 13.2001 12.5C9.80005 12.6 7.30005 9.99995 7.30005 6.59995Z" fill="#FBB040"/>
</svg>
