<svg width="80" height="109" viewBox="0 0 154 109" fill="none" xmlns="http://www.w3.org/2000/svg">
<path d="M153.2 44.4C152.2 43.3 150.5 43.6 149.1 44.2C148.8 44.1 147.8 43.7 146.4 41.7C146 41.1 145.5 40.1 144.8 38.8C138 25.7 134.4 23.6 127.6 19.1C127.6 16.3 127.4 11.3 126.8 8.59998C126 4.99998 123.5 4.2 122.8 4C122 2.9 120.3 2 118.7 2C114.1 2 114.3 8.4 117.5 12C117.3 12.5 116.9 13.6 117.1 16.3H115C114.8 15.3 114.2 12.6 111.8 11.2C110.6 8.69995 107.5 6.99995 103.3 7.69995C99.4 8.39995 98.1 11.5 99 15.3C97.6 14.5 94.5 12.5 92.7 9.19995C90.3 4.89995 86.7 0.900049 75.8 0.800049C74.6 1.00005 58.1 -0.299975 43.5 10.4C37.9 14.5 34.3 18.9 30.9 24.1C28.2 28.2 22.2 44.5 23.3 51.2C-10.2 71.5 -3.29997 104.5 20 107.7C30 109 46.7 106.6 52.7 98.7C59.1 90.3 54.6 81.5 53.3 80.7C53.3 80.7 53.9 84.8 53.9 84.9C54.6 88.9 52.7 93.3 50.9 95.8C46.5 101.7 32.1 103.3 24.6 102.9C11.6 102.2 8.40003 94.1 7.60003 90.7C6.90003 87.5 7.40003 85.2 8.00003 82.3C8.90003 77.6 12.8 65.9 29.4 58.9C30.1 59.2 30.8 59.5 31.6 59.6C38.2 61.2 39.5 61.7 39.7 61.8C40.1 62.2 42.4 64.1 43.6 64.7C43.7 65.4 43.7 67.8 43 69.1C41.8 71.3 50.5 70.8 53 70.7C60 72.9 62.4 77.9 62.5 77.9L63.1 77.6C64.2 77.1 64.8 75.4 63.7 73.7C64.6 74.1 65.7 74.8 66.1 75.4C66.9 76.7 67.9 78.6 67.9 78.6C67.9 78.6 70.7 75.7 68.2 72.3C68.8 72.6 69.5 73 70.2 73.4C71.9 74.4 72.2 76.9 72.2 76.9C72.3 76.8 74.6 73 72.3 71.1C65.5 65.6 66.1 67.2 56 67.2C53.6 67.2 53.3 66.9 53.2 66.9C52.8 66 52.7 65.3 53 64.8C54.1 64.6 61 63.3 62.9 60.5C66.4 61.3 71.1 61.6 74.5 60.5C78.8 59.2 83.3 58.7 84.6 58.6C85.1 62.7 86.8 63.9 86.9 64C86.9 64 88.4 62.5 89.2 62.3C90.3 69.9 95 71.3 95 71.4C95 71.4 95.6 69.7 96.2 68.8C96.6 70.2 97.7 73.4 99.1 73.9C100.2 74.2 100.9 74.5 101.3 74.6C101.3 75.1 101.3 76 101.8 77.2C102.4 78.5 103.8 79.1 105.2 79.4L105.8 75.4L105.6 74.6L107.9 74.9C109.9 78.1 113.1 76.3 113.2 76.3L112.5 74.8C113.1 74.7 114 74.6 114.4 75L115.4 76C115.1 74.8 114.7 72.5 112.5 71.6C110.9 71 110.3 71 109.4 71.2C108.4 71.4 106.8 71.7 106.1 70.9C105 69.8 102.9 66.5 103.4 63.7C104 60.8 106.2 59.8 109 58.3C110.1 60.2 110.6 60.5 111 60.5C111.3 60.5 117.7 60.8 118.3 65.1C119.4 65.4 124 66.7 125.2 66.7C126.3 66.7 127.2 69.4 127.3 69.4C127.4 69.2 128.8 68.2 128.7 66C129.2 66.3 129.8 66.6 130.1 67C130.9 67.8 131.4 69.3 131.4 69.3C131.5 69 132.3 66.2 131.9 64.7C132.7 65 132.9 65.5 133.6 66.1L133.4 64.9C133.1 62.7 131.1 60.7 128.6 60.7C125.2 60.7 125.6 63.7 122.2 57C121.9 56.4 121.7 56 121.5 55.7C123.8 56.3 126.3 56.6 128.7 56.3C134.1 55.5 136.3 54.8 137 54.5C139.5 56.2 142.7 56.5 145.5 55.2C149.2 53.4 150.2 51.7 150.4 51.1C151.2 50.8 154 49.5 154 46.7C153.9 46.3 153.9 45.2 153.2 44.4Z" fill="#D4B867"/>
<path d="M118 18.5999C118 18.5999 117.8 18.9999 117.5 16.1999C117.2 13.3999 118 12 118 12C118 12 115.6 9.59991 115.6 6.19991C115.6 2.79991 118.1 2.09991 119.9 2.69991C121.8 3.29991 122.5 4.49996 122.5 4.49996C122.5 4.49996 125.5 4.90001 126.3 8.80001C127.1 12.7 127.1 21.5 127.1 21.5L118 18.5999Z" fill="#B41C2B"/>
<path d="M108.3 56.1C108.3 56.1 110.1 59.9 110.9 59.9C111.7 59.9 118 60.1 118.5 64.6C118.5 64.6 123.9 66.1 125.1 66.1C126.3 66.1 127.3 68.5 127.3 68.5C127.3 68.5 128.2 67.5 128.2 66.3C128.2 65.1 128 65 128 65C128 65 129.7 65.7 130.3 66.4C131 67.1 131.2 68.2 131.2 68.2C131.2 68.2 132.1 64.9 131 63.8C131 63.8 132.1 63.9 132.9 64.7C132.9 64.7 132.5 61.8 129.7 61C127 60.2 125.7 62.4 124.2 61C122.8 59.6 121.4 56 120.8 55.3C120.3 54.6 120.1 52.7 120.1 52.7L112.1 48.6L108.3 56.1Z" fill="#B41C2B"/>
<path d="M52.6 98.6C52.2 99.2 53.1 98 52.6 98.6V98.6Z" fill="#B41C2B"/>
<path d="M149.1 44.6C149.1 44.6 147.9 44.5 146 41.9C144.2 39.3 139.7 27.6 131.1 22C122.5 16.4 123.1 16.9 120.8 16.9C118.5 16.9 114.6 16.9 114.6 16.9C114.6 16.9 114.3 13.3 111.5 11.7C111.5 11.7 109.6 7.20006 103.4 8.30006C97.2 9.30006 99.6 16.3001 99.6 16.3001C99.6 16.3001 94.9 14.2 92.3 9.59999C89.8 4.99999 86 1.50004 75.8 1.40004C45.8 1.20004 34.3 19.8 31.2 24.5C28.3 29 22.4 45.4 23.7 51.6C-9.5 71.5 -3.2 104.4 20.1 107.5C30.2 108.9 46.6 106.4 52.5 98.7C58.8 90.4 53.8 81.6 53.8 81.6C53.8 81.6 54.4 85 54.4 85.1C55.1 88.8 53.5 93.3001 51.3 96.3001C46.8 102.2 32.6 104 24.7 103.6C13.8 103 8.8 97.2 7.3 91.1C6.4 87 7.5 83.2001 7.6 82.8001C7.8 82.6001 9.3 67.2001 29.4 58.8001C30.1 59.1001 30.8 59.4 31.7 59.6C39.2 61.4 39.9 61.8001 39.9 61.8001C39.9 61.8001 42.9 64.4 43.9 64.7C43.9 64.7 44.2 67.9 43.3 69.6C42.4 71.3 53 70.6 53 70.6C53 70.6 57.3 71.9001 60.2 74.8001C62.6 77.2001 62.8 77.5 62.8 77.6C62.9 77.5 63.8 77.1001 63.8 75.8001C63.8 74.4001 62.3 73.1 62.3 73.1C62.3 73.1 65.5 74.2 66.3 75.6C67.1 77 67.9 78.3001 67.9 78.3001C67.9 78.3001 69.1 77.1 68.7 74.9C68.2 72.7 66.3 71.5 66.3 71.5C66.3 71.5 68.4 72.3 70.3 73.4C72.2 74.6 72.1 76.5 72.1 76.5C72.1 76.5 73.8 73.5 71.8 71.6C69.9 69.7 67.4 68.1001 65.6 67.8001C62.4 67.2001 53.1 68.5001 52.6 67.3001C52 66.1001 52.1 65.2 52.6 64.7C52.6 64.7 60.8 63.4001 62.5 60.3001C62.5 60.3001 69.1 62 74.2 60.4C79.3 58.8 84.8 58.5 84.8 58.5C84.8 58.5 85.1 62.1001 86.7 63.8001C86.7 63.8001 88.8 61.8 89.4 62.4C89.4 62.4 90.2 69.1 94.7 71.2C94.7 71.2 95.7 68.4 96.3 68.4C96.3 68.4 97.5 73.3001 99.2 73.8001C100.8 74.3001 101.7 74.6 101.7 74.6C101.7 74.6 101.4 75.7001 102.2 77.3001C102.9 78.9001 104.9 79.2 104.9 79.2L105.4 75.7L105 74.4L108.1 74.8001C108.1 74.8001 109.6 77.7 112.6 76.4L111.9 74.8001C111.9 74.8001 113.8 74.2 114.6 75C114.6 75 114.1 72.9 112.3 72.2C110.5 71.5 110.1 71.7 109.8 71.7C109.5 71.7 106.9 72.5 105.8 71.4C104.7 70.3 102.4 66.9001 103 63.8001C103.6 60.8001 105.7 59.8 110.3 57.4C114.8 55 115.6 53 115.6 53C115.6 53 122.2 57 128.6 56C135.1 55.1 137 54.2 137 54.2C137 54.2 140.9 57.1 145.3 55C149.7 52.9 150.1 50.9 150.1 50.9C150.1 50.9 153.6 49.7 153.6 46.7C153.5 46.4 153.6 42.8 149.1 44.6Z" fill="#ED1C24"/>
<path d="M127.1 19.3C126.7 19.1 126.4 18.8999 126 18.6999C121.4 16.0999 123.1 17.4 117.6 16.8C118.2 16.7 121.9 16.4999 122.7 16.6999C124 17.0999 126.1 18.5 127.1 19.3Z" fill="#D4B867"/>
<path d="M115.3 52C115.1 52.5 115 52.8 114 53.9C112.2 55.6 110.5 56.6 109.1 57.6C111.5 56.7 114.4 55.2 115.7 53.1C117.3 54 119.5 54.7 121.4 55C116.5 52.8 117.3 53.1 115.3 52Z" fill="#D4B867"/>
<path d="M109.8 23.6999C109.8 23.6999 110.4 20.9 108 20.5C108 20.5 108.1 20.3 108.3 19.3C108.5 18.3 107.4 16.9 107 16.6C107 16.6 109.5 16.6 110.4 18.4C110.4 18.4 111.1 15.2 110.3 13.5C111 14.7 113.7 19.4 114.5 20.9C115.4 22.6 118.6 22.9 118.6 22.9C118.6 22.9 115 22.5 114.2 19.4C113.3 16.3 109.3 8.09996 105.6 10.1C105.6 10.1 109 13.2 108.5 15.8C108.5 15.8 105.6 13.8 104.5 14.9C104.5 14.9 107.6 17.7 106.7 19C105.9 20.3 105.8 21.4 105.8 21.4C105.8 21.4 107.8 21.8 107.6 22.9C107.4 24 105.6 24.5 105.6 24.5C105.6 24.5 106.5 27.2 110 27.9C113.6 28.5 117.8 26 117.8 26C117.8 26 105.6 29.0999 109.8 23.6999Z" fill="#D4B867"/>
<path d="M137.5 39.3C137 41 135.2 42 133.7 41.5C132.1 41 131.3 39.2 131.8 37.5C132.3 35.8 134.1 34.8 135.6 35.3C137.2 35.8 138.1 37.6 137.5 39.3Z" fill="#D4B867"/>
<path d="M136.9 38.9C136.4 40.4 135 41.2001 133.6 40.8001C132.3 40.4001 131.5 38.9 132 37.4C132.5 35.9 133.9 35.1 135.3 35.5C136.7 35.9 137.4 37.5 136.9 38.9Z" fill="#B41C2B"/>
<path d="M137.9 41.5C137.9 42 137.4 42.5 136.7 42.5C136 42.5 135.5 42.1 135.5 41.5C135.5 41 136 40.5 136.7 40.5C137.4 40.5 137.9 41 137.9 41.5Z" fill="#D4B867"/>
<path d="M152.9 46.5C152.9 47.3 152.4 48 151.9 48C151.3 48 150.9 47.3 150.9 46.5C150.9 45.7 151.4 45 151.9 45C152.4 45 152.9 45.7 152.9 46.5Z" fill="#D4B867"/>
<path d="M124.4 21.8C124.4 22.6 123.7 23.3 122.9 23.3C122.1 23.3 121.4 22.6 121.4 21.8C121.4 21 122.1 20.3 122.9 20.3C123.7 20.3 124.4 21 124.4 21.8Z" fill="#D4B867"/>
<path d="M129.3 22.9C129.3 23.6 128.7 24.2 128 24.2C127.3 24.2 126.7 23.6 126.7 22.9C126.7 22.2 127.3 21.6 128 21.6C128.7 21.6 129.3 22.2 129.3 22.9Z" fill="#D4B867"/>
<path d="M133.1 24.8001C133.1 25.4001 132.6 25.9001 132 25.9001C131.4 25.9001 130.9 25.4001 130.9 24.8001C130.9 24.2001 131.4 23.7 132 23.7C132.6 23.6 133.1 24.1001 133.1 24.8001Z" fill="#D4B867"/>
<path d="M136 27.4C136 28 135.5 28.5 134.9 28.5C134.3 28.5 133.8 28 133.8 27.4C133.8 26.8 134.3 26.3 134.9 26.3C135.5 26.3 136 26.8 136 27.4Z" fill="#D4B867"/>
<path d="M137.7 29.6C137.7 30 137.3 30.4 136.9 30.4C136.5 30.4 136.1 30 136.1 29.6C136.1 29.2 136.5 28.8 136.9 28.8C137.4 28.8 137.7 29.1 137.7 29.6Z" fill="#D4B867"/>
<path d="M138.2 32.5C137.3 32.5 137.3 31.2 138.2 31.2C138.6 31.2 139.1 32.5 138.2 32.5Z" fill="#D4B867"/>
<path d="M122.3 39.8001C121.8 39.9001 121 40.4001 120.7 40.8001C120.6 40.7001 120.5 40.6 120.4 40.5C120.8 40.3 121.6 39.6 121.9 39C123.2 36.6 121.4 35.7001 120.5 36.4001C119 37.5001 119.2 39.6 119.4 40.2C119.2 40.2 119.1 40.2001 119 40.3001C119 37.5001 117.1 36.4001 116.2 36.8001C114.4 37.7001 116.4 40.6001 118.3 40.8001C118.2 41.0001 118.2 41.1 118.1 41.2C117.8 41 116.8 40.5 116.1 40.5C112.5 40.4 113.1 44.1 116.4 43.1C117 42.9 117.8 42.4 118.1 42C118.2 42.1 118.2 42.3001 118.3 42.4001C118.3 42.4001 118.2 42.4 118.2 42.5C113.7 45.9 118.2 49.0001 119.2 44.8001C119.3 44.3001 119.3 43.4001 119.1 42.9001C119.2 42.9001 119.4 42.9001 119.5 42.9001C119.7 44.2001 119.8 45.0001 120.9 45.9001C122.4 47.1001 124.1 45.3 122.1 43.2C121.7 42.8 120.9 42.4001 120.5 42.3001C120.6 42.2001 120.6 42.1001 120.7 41.9001C121.9 42.5001 123.2 42.7001 124.4 41.9001C125.7 41.2001 125.1 39.1001 122.3 39.8001ZM121.1 38.8001C121 39.3001 120.8 39.5001 120.3 40.4001C120.1 40.3001 120 40.2 119.7 40.2C120 39.1 120 38.9001 120.3 38.4001C120.7 37.8001 121.3 38.1001 121.1 38.8001ZM117.2 38.6C117.9 38.1 118.6 39.9001 119 40.4001C118.8 40.5001 118.6 40.6001 118.5 40.8001C118 40.2001 116.6 39.1 117.2 38.6ZM116.4 42.4001C115.8 42.4001 115.4 41.7001 116.4 41.4001C116.9 41.3001 117 41.3001 118.2 41.3001C118.2 41.5001 118.2 41.8 118.3 42C117.8 42.1 117.3 42.3001 116.4 42.4001ZM118 44.9001C117.3 44.6001 118.2 43.2 118.6 42.6C118.8 42.8 119 42.9001 119.2 42.9001C119 43.6001 118.7 45.2001 118 44.9001ZM121.8 44.2C121.8 44.8 121 44.8001 120.3 43.4001C120.2 43.2001 120.1 43.0001 120 42.9001C120.2 42.8001 120.4 42.7 120.6 42.5C121 42.9 121.8 43.6 121.8 44.2ZM122.9 41.5C122.6 41.7 122.3 41.7 120.9 41.7C120.9 41.5 120.9 41.2 120.8 41C121.1 40.9 121.5 40.8 122.5 40.7C122.9 40.6 123.4 41.1 122.9 41.5Z" fill="#D4B867"/>
<path d="M107.2 35C107.2 35.6 106.7 36.1 106.1 36.1C105.5 36.1 105 35.6 105 35C105 34.4 105.5 33.9 106.1 33.9C106.7 33.9 107.2 34.4 107.2 35Z" fill="#D4B867"/>
<path d="M107.4 39.2C107.4 39.8 106.9 40.3001 106.3 40.3001C105.7 40.3001 105.2 39.8 105.2 39.2C105.2 38.6 105.7 38.1 106.3 38.1C106.9 38 107.4 38.5 107.4 39.2Z" fill="#D4B867"/>
<path d="M107.8 45.2C108.573 45.2 109.2 44.5732 109.2 43.8C109.2 43.0269 108.573 42.4 107.8 42.4C107.027 42.4 106.4 43.0269 106.4 43.8C106.4 44.5732 107.027 45.2 107.8 45.2Z" fill="#D4B867"/>
<path d="M111.7 48C111.7 48.9 111 49.6 110.1 49.6C109.2 49.6 108.5 48.9 108.5 48C108.5 47.1 109.2 46.4 110.1 46.4C111 46.4 111.7 47.1 111.7 48Z" fill="#D4B867"/>
<path d="M114.5 51.9C114.5 52.8 113.8 53.5 112.9 53.5C112 53.5 111.3 52.8 111.3 51.9C111.3 51 112 50.3 112.9 50.3C113.9 50.4 114.5 51.1 114.5 51.9Z" fill="#D4B867"/>
<path d="M99.2 17.9C99.2 18.5 98.7 19 98.1 19C97.5 19 97 18.5 97 17.9C97 17.3 97.5 16.8 98.1 16.8C98.7 16.8 99.2 17.3 99.2 17.9Z" fill="#D4B867"/>
<path d="M94.6 13.8C94.6 14.4 94.1 14.9 93.5 14.9C92.9 14.9 92.4 14.4 92.4 13.8C92.4 13.2 92.9 12.7 93.5 12.7C94.2 12.8 94.6 13.2 94.6 13.8Z" fill="#D4B867"/>
<path d="M90.8 9.40002C90.8 9.90002 90.4 10.3 89.9 10.3C89.4 10.3 89 9.90002 89 9.40002C89 8.90002 89.4 8.5 89.9 8.5C90.4 8.6 90.8 8.90002 90.8 9.40002Z" fill="#D4B867"/>
<path d="M87.6 5.90002C87.6 6.30002 87.3 6.69995 86.8 6.69995C86.4 6.69995 86 6.40002 86 5.90002C86 5.50002 86.3 5.09998 86.8 5.09998C87.3 5.09998 87.6 5.50002 87.6 5.90002Z" fill="#D4B867"/>
<path d="M58.8 14.4C58.8 14.4 73 9.20001 80 10.3C87 11.4 89.2 14.8 89.8 18.8C90.4 22.8 86.9 30.3 80 28.4C73.1 26.6 77.5 22.9 79 23.3C80.5 23.7 83.4 25.6999 85.3 24.6999C87.2 23.6999 88.2001 21.6 87.6001 19.8C87.6001 19.8 85.2 22.3999 83.4 21.1999C83.4 21.1999 85.2 18.1 83.9 15.3C82.7 12.6 82.3 14.1999 82.3 14.1999C82.3 14.1999 82.2 16.9 80.8 16.5C79.4 16.1 79 11.8999 77.8 11.6999C76.6 11.3999 77.5 12.8999 77.5 14.1999C77.5 15.4999 74.8 10.5 58.8 14.4Z" fill="#D4B867"/>
<path d="M47.8 20.3C47.8 20.3 53.1 22.1 55.5 17.3C58 12.5 57.2 10.4999 60.6 9.09992C64 7.69992 67.1 8.29992 67.4 8.59992C67.7 8.89992 64.8 6.79999 62.7 6.79999C60.6 6.79999 59.5 6.6999 59.5 6.6999L60.9 5.79999C60.9 5.79999 55.7 5.09999 54 6.79999C52.2 8.59999 52.5 9.89997 52.5 9.89997L52 6.79999C52 6.79999 49.1 8.79992 49.1 11.0999C49 13.2999 51.4 18.7 47.8 20.3Z" fill="#D4B867"/>
<path d="M33.1 29.1C33.1 29.5 32.7 29.9 32.3 29.9C31.9 29.9 31.5 29.5 31.5 29.1C31.5 28.7 31.9 28.3 32.3 28.3C32.7 28.3 33.1 28.6 33.1 29.1Z" fill="#D4B867"/>
<path d="M29.9 32.8C28.9 32.8 28.9 31.3 29.9 31.3C30.3 31.3 30.9 32.8 29.9 32.8Z" fill="#D4B867"/>
<path d="M37.5 55.1C37.5 55.1 34.1 56.9 30.6 54.5C27.2 52.1 26.3 46 29.6 40.6C32.8 35.2 41.8 30.7 47.1 32C52.5 33.4 54.9 37.3 53.6 43.9C52.6 49 48.1 50.7 43.7 49.5C39.2 48.4 38.7 40.3001 43.2 40.3001C47.7 40.3001 43.8 45.4 43.8 45.4C43.8 45.4 44.3 47.5 45.7 46C45.7 46 45.4 47.4 47.6 47.7C49.8 47.9 54.5 43.7 51.1 36.7C48.3 31 33.5 34.4 29.9 40.9C28 44.4 22.7 56.2 37.5 55.1Z" fill="#D4B867"/>
<path d="M38.4 38.7C38.4 38.7 39.4 42.3 36.7 44C34 45.7 32.1 45.6 32.3 46.3C32.5 46.9 35.8 45.8 35.8 45.8C35.8 45.8 36.4 47.2 33.8 48C31.2 48.9 29.3 51.3 29.9 52.3C29.9 52.3 27.3 48.4 29.3 45.2C31.3 42 35.1 43 36.4 41.7C37.7 40.3 38.4 38.7 38.4 38.7Z" fill="#D4B867"/>
<path d="M45 60.6C45 61.2 44.6 61.6 44 61.6C43.4 61.6 43 61.2 43 60.6C43 60 43.4 59.6 44 59.6C44.6 59.6 45 60 45 60.6Z" fill="#D4B867"/>
<path d="M49.4 60.6C49.4 61.4 48.8 62 48 62C47.2 62 46.6 61.4 46.6 60.6C46.6 59.8 47.2 59.2 48 59.2C48.8 59.1 49.4 59.8 49.4 60.6Z" fill="#D4B867"/>
<path d="M54.6 58.6C54.6 59.7 53.7 60.6 52.6 60.6C51.5 60.6 50.6 59.7 50.6 58.6C50.6 57.5 51.5 56.6 52.6 56.6C53.7 56.6 54.6 57.5 54.6 58.6Z" fill="#D4B867"/>
<path d="M59.2 54.9C59.2 56.1 58.2 57.1 57 57.1C55.8 57.1 54.8 56.1 54.8 54.9C54.8 53.7 55.8 52.7 57 52.7C58.2 52.8 59.2 53.7 59.2 54.9Z" fill="#D4B867"/>
<path d="M61.5 50.4C61.5 51.1 60.9 51.7 60.2 51.7C59.5 51.7 58.9 51.1 58.9 50.4C58.9 49.7 59.5 49.1 60.2 49.1C61 49.1 61.5 49.7 61.5 50.4Z" fill="#D4B867"/>
<path d="M60.8 46.5C61.3523 46.5 61.8 46.0523 61.8 45.5C61.8 44.9477 61.3523 44.5 60.8 44.5C60.2478 44.5 59.8 44.9477 59.8 45.5C59.8 46.0523 60.2478 46.5 60.8 46.5Z" fill="#D4B867"/>
<path d="M59.8 42.1C58.9 42.1 58.9 40.7 59.8 40.7C60.2 40.7 60.7 42.1 59.8 42.1Z" fill="#D4B867"/>
<path d="M57.3 38.8C56.4 38.8 56.4 37.4 57.3 37.4C57.6 37.4 58.2 38.8 57.3 38.8Z" fill="#D4B867"/>
<path d="M54.6 36.6C54 36.6 54 35.7 54.6 35.7C54.9 35.7 55.2 36.6 54.6 36.6Z" fill="#D4B867"/>
<path d="M24.7 54.9C24.7 56 23.8 56.8 22.8 56.8C21.7 56.8 20.9 55.9 20.9 54.9C20.9 53.8 21.8 53 22.8 53C23.9 53 24.7 53.9 24.7 54.9Z" fill="#D4B867"/>
<path d="M19.9001 58.1C19.9001 59 19.2001 59.7 18.3001 59.7C17.4001 59.7 16.7001 59 16.7001 58.1C16.7001 57.2 17.4001 56.5 18.3001 56.5C19.2001 56.6 19.9001 57.3 19.9001 58.1Z" fill="#D4B867"/>
<path d="M15.3 61.3001C15.3 61.9001 14.8 62.4001 14.2 62.4001C13.6 62.4001 13.1 61.9001 13.1 61.3001C13.1 60.7001 13.6 60.2 14.2 60.2C14.8 60.1 15.3 60.6001 15.3 61.3001Z" fill="#D4B867"/>
<path d="M10.6 66.4C11.318 66.4 11.9001 65.8179 11.9001 65.1C11.9001 64.382 11.318 63.8 10.6 63.8C9.88208 63.8 9.30005 64.382 9.30005 65.1C9.30005 65.8179 9.88208 66.4 10.6 66.4Z" fill="#D4B867"/>
<path d="M9.40005 68.2C9.40005 68.9 8.80005 69.5 8.10005 69.5C7.40005 69.5 6.80005 68.9 6.80005 68.2C6.80005 67.5 7.40005 66.9 8.10005 66.9C8.80005 67 9.40005 67.5 9.40005 68.2Z" fill="#D4B867"/>
<path d="M6.60005 72.5C6.60005 73 6.20005 73.4 5.70005 73.4C5.20005 73.4 4.80005 73 4.80005 72.5C4.80005 72 5.20005 71.6 5.70005 71.6C6.10005 71.6 6.60005 72 6.60005 72.5Z" fill="#D4B867"/>
<path d="M5.20002 75.6C5.20002 76.1 4.80002 76.5001 4.30002 76.5001C3.80002 76.5001 3.40002 76.1 3.40002 75.6C3.40002 75.1 3.80002 74.7 4.30002 74.7C4.80002 74.6 5.20002 75.1 5.20002 75.6Z" fill="#D4B867"/>
<path d="M4.3 78.8C4.3 79.3 3.9 79.7 3.4 79.7C2.9 79.7 2.5 79.3 2.5 78.8C2.5 78.3 2.9 77.9 3.4 77.9C3.9 77.9 4.3 78.3 4.3 78.8Z" fill="#D4B867"/>
<path d="M3.39998 82.7C3.39998 83.2 2.99998 83.6 2.49998 83.6C1.99998 83.6 1.59998 83.2 1.59998 82.7C1.59998 82.2 1.99998 81.8 2.49998 81.8C2.99998 81.8 3.39998 82.2 3.39998 82.7Z" fill="#D4B867"/>
<path d="M3.39998 86.5C3.39998 87 2.99998 87.4 2.49998 87.4C1.99998 87.4 1.59998 87 1.59998 86.5C1.59998 86 1.99998 85.6 2.49998 85.6C2.99998 85.6 3.39998 86 3.39998 86.5Z" fill="#D4B867"/>
<path d="M3.8 89.7C3.8 90.2 3.4 90.6 2.9 90.6C2.4 90.6 2 90.2 2 89.7C2 89.2 2.4 88.8 2.9 88.8C3.4 88.8 3.8 89.2 3.8 89.7Z" fill="#D4B867"/>
<path d="M3.40007 93.3C2.80007 93.3 2.80007 92.4 3.40007 92.4C3.60007 92.4 4.00007 93.3 3.40007 93.3Z" fill="#D4B867"/>
<path d="M4.29998 95.7C3.69998 95.7 3.69998 94.8 4.29998 94.8C4.49998 94.8 4.89998 95.7 4.29998 95.7Z" fill="#D4B867"/>
<path d="M5.99998 98.1C5.29998 98.1 5.29998 97.1 5.99998 97.1C6.29998 97.1 6.69998 98.1 5.99998 98.1Z" fill="#D4B867"/>
<path d="M118.2 26.4C115.2 29.3 110.1 30.7 107.1 28C105.4 26.5 105 24.6 105 24.5C104.8 24.3 103.7 23.6 103 22.8C101.3 21.2 100 18.6 99.7001 16.1C99.8001 18.9 101.3 22.2 104.6 24.6C106.4 31.1 113.9 31 118.2 26.4Z" fill="#D4B867"/>
<path d="M123 16.1C122.7 15.8 122.7 15.3 122.6 14.5C122.4 13.2 121.6 12.3 120.7 11.3C119.2 9.80004 118.5 4.99999 119.7 3.99999C120.4 3.29999 121.9 3.90002 122.6 4.40002C121.9 3.60002 120.9 3.00004 119.8 3.30004C116.9 4.20004 118.2 7.89997 118.9 9.59997C119.8 11.9 120.6 11.7 121.8 13.5C122.3 14.3 122.4 15.3999 122.6 15.6999C123 16.8999 124.5 16.3 124.4 15.3C124.2 16 123.4 16.4 123 16.1Z" fill="#D4B867"/>
<path d="M132.9 48.1C132.4 49.2 133.4 51.1 134.1 52.1C133.5 52.1 133 52.1 132.4 51.9C129.6 51 128.9 47.7 128.8 47.5C128.8 47.6 126.4 48.8 129.1 53.1C125.1 52.6 122.7 48.2 122.6 48.1C122.6 48.2 120.7 49.1 122.7 52.3C120.8 52.2 119.6 50.9 118.8 49.3C118.2 48 118.1 47.2 118 46.9C117.4 47.4 116.5 47.7 117.2 49.9C114 48.4 113.9 44.6 113.9 44.5C113.8 44.5 113.4 43.7 112.4 44.9C111.8 42.5 112.5 38.7 112.6 38C112.5 38.1 111.9 37.5 110.3 40.1C110.1 37 111.9 34.4 114.5 33.1C113.8 33.4 113.1 33.8 112.5 34.4C111.3 35.4 110.8 36.3 110.4 37.3C109.6 39.7 110 40.5 110 41.5C110.1 41.4 111.2 39.1 112 38.9C111.8 40.1 111.6 41.2 111.6 42.2C111.5 45 112 45.8 112.2 46.4C112.5 46 112.8 45.4 113.2 45.2C113.4 47.5 114.7 49.3 115.8 50.1C116.6 50.7 117.5 51 118.3 51.3C118.2 50.9 117.6 49.7 117.6 48.7C119.6 54.5 123.9 53 124.1 53.2C124.1 53.1 122 50.9 122.5 49.5C126.2 54.6 129.9 53.8 130.2 53.9C130.1 53.8 127.4 50.5 128.5 48.6C130.3 53.3 134.2 52.4 134.3 52.4L134.2 52.2C133.6 51.2 132.4 49.2 132.9 48.1Z" fill="#D4B867"/>
<path d="M136.2 49C136.4 48.5 135.5 48.3 135.4 48.8C135.2 50.1 135.5 51.9 136.9 53.8C135.9 51.9 135.8 50.6 136.2 49Z" fill="#D4B867"/>
<path d="M137.5 35.5C134.4 33.5 129.9 36.3 126.5 33.1C129.9 36.9 136.3 33.9 137.7 37.4C137.8 37.7 138.2 37.9 138.5 37.7C138.8 37.6 138.9 37.2 138.8 36.9C138.7 36.9 138.4 36.1 137.5 35.5Z" fill="#D4B867"/>
<path d="M136.3 41.3C136.5 40.5 135.3 40.3 135.1 41.1C134.6 41.5 132.6 41.2 131.4 39.7C131.1 39.4 131 39 130.8 38.6C130.2 37.5 129.5 36.2 128.7 35.2C129.9 37.2 130.6 39.5 130.9 40.1C132 41.9 134.2 42.7 135.3 42.3C135.7 42.1 136.2 41.6 136.3 41.3Z" fill="#D4B867"/>
<path d="M78.5001 4.99998C80.2001 4.99998 81.7001 5.39998 82.8001 6.99998C83.3001 7.69998 83.5001 8.29993 83.7001 8.69993C83.9001 9.49993 85.1001 9.10001 84.8001 8.40001C83.3001 4.10001 79.0001 4.40001 79.0001 4.40001C76.1001 4.40001 71.9001 6.39993 69.6001 8.19993C72.6001 6.09993 76.6001 4.99998 78.5001 4.99998Z" fill="#D4B867"/>
<path d="M44.8 24.5C47.8 23.8 51.2 23.5001 54.3 24.3001C55.7 24.6001 57.3 25.3001 58.3 26.3001C58.7 26.7001 59 27.2 59.2 28.2C59.5 29.6 58.9 30 59 30C58.4 30.6 59.4 31.7 60.1 30.5C60.7 29.4 60.3 27.9001 59.9 26.8001C59.4 25.6001 58.1 24.8 56.9 24.2C50 21.1 35.5 24.3001 29.9 35.9001C30.6 34.5001 31.6 33.1001 32.7 31.9001C36 28.0001 40 25.7 44.8 24.5Z" fill="#D4B867"/>
<path d="M40.4 24.8C42 23.4 47.1 18.7999 47 16.6999C47 14.5999 44 13.2 42.1 14.5C41.5 15 40.8 16.1 40.7 17.1C40.6 17.9 41.9 17.9999 41.9 17.1999C41.9 17.1999 41.7 15.2 43.3 15C44.5 14.8 45.4 15.7 45.4 17.1C45.7 18.7 41.6 23.6 40.4 24.8Z" fill="#D4B867"/>
<path d="M34.6001 24.1C34.9001 24 35.1001 23.7 35.0001 23.4C35.0001 23.1 34.8001 22.7 35.0001 22.3C35.2001 21.6 36.3001 21.5 36.8001 21.9C37.7001 22.7 37.4001 25.9 34.9001 28C38.1001 25.8 38.8001 21.4 36.5001 20.9C34.9001 20.5 33.5001 21.6999 33.9001 23.6999C33.9001 23.8999 34.2001 24.2 34.6001 24.1Z" fill="#D4B867"/>
<path d="M66.7 37.9C65 35.6 62.3 34.2 59.9 33.9C70.3 37.8 68.9 50.8 62.8 60C69.2 54 70.8 43 66.7 37.9Z" fill="#D4B867"/>
<path d="M62.2001 35.8C64.0001 37 65.4001 40 65.7001 42.5C65.7001 42.8 68.9001 57.3 52.9001 62.6C50.7001 63.3 48.6001 63.7 46.3001 63.4C44.5001 63.2 42.9001 62.2 42.5001 61.9C41.6001 61.2 41.0001 59.4 41.5001 58.3C42.1001 57 44.7001 56.9 45.5001 58.7C44.9001 56.7 42.2001 56.5 41.2001 57.9C41.2001 58 40.6001 58.6 40.8001 59.9C42.0001 68.7 64.2001 64.3 66.5001 48.5C67.2001 44.2 65.8001 37.7 62.2001 35.8Z" fill="#D4B867"/>
<path d="M61.9001 54.5C65.0001 52.1 65.1001 45.8 64.2001 41.8C63.0001 35.6 58.8001 33.1 54.7001 33.9C59.3001 34.4 61.8001 37.4999 62.6001 42.0999C63.5001 45.7999 64.0001 51.4 61.9001 54.5Z" fill="#D4B867"/>
<path d="M37.4001 49.7C36.6001 49.9 35.2001 49.7 34.7001 51C34.4001 51.9 34.9001 52.8 35.7001 53.1C36.6001 53.4 37.5001 52.9 37.8001 52.1C38.0001 51.6 38.7001 51.6 38.9001 52.1C39.1001 52.6 39.0001 53.4 38.6001 54.1C36.3001 58.4 28.3001 57 26.9001 49.6C25.8001 43.5 29.4001 38.6 33.9001 34.2C35.2001 32.9 36.9001 31.5 38.4001 30.3C34.1001 33.4 28.4001 38.6 26.7001 43.7C25.4001 47.6 25.9001 52.2 28.7001 55.3C30.9001 57.8 34.7001 58.6 37.5001 57.2C39.5001 56.2 41.2001 53.7 40.5001 51.5C40.2001 50.3 38.8001 49.5 37.4001 49.7Z" fill="#D4B867"/>
<path d="M44.9 64.6L44.8 65C46.8 65.7 49.7 65.9 51.6 65L51.4 64.6C48.8 65.9 45 64.6 44.9 64.6Z" fill="#D4B867"/>
<path d="M68.2001 56.9C75.8001 58.9 84.0001 56.8 85.3001 49.1C84.6001 50.6 76.4001 56.6 68.2001 56.9Z" fill="#D4B867"/>
<path d="M80.4001 53.1C76.1001 55.9 70.9001 55.4 70.1001 55.8C70.2001 55.7 76.7001 56.6 80.4001 53.1Z" fill="#D4B867"/>
<path d="M78.3001 52.3C77.2001 53.8 72.5001 54.1 70.1001 54.5C72.1001 54.6 77.5001 54.2 78.3001 52.3Z" fill="#D4B867"/>
<path d="M89.9001 45.5C89.7001 45.9 84.9001 49.1 84.5001 54.6C84.4001 55.8 84.5001 57 84.9001 58.2C84.8001 54.8 85.4001 52 87.8001 48.4C88.2001 47.9 89.8001 45.9 89.9001 45.5Z" fill="#D4B867"/>
<path d="M98.0001 62.5C97.3001 63.2 97.6001 65 97.7001 66C97.0001 64.9 96.3001 63.4 96.6001 62.1C96.7001 61.6 96.9001 61.4 97.4001 60.7L96.5001 61.2C95.5001 61.7 94.9001 63.8 94.7001 64.9C92.3001 61.3 96.0001 57.9 96.0001 57.9C95.8001 58.1 93.4001 56.5 92.0001 61.3C90.4001 57.6 91.8001 53.3 91.8001 53.3C91.6001 53.4 90.5001 52.2 88.4001 56.1C87.7001 52.8 89.6001 49.6 92.1001 47.4C90.0001 49 88.1001 51.4 87.8001 54.2C87.6001 55.7 88.1001 57.1 88.2001 57.7C88.2001 57.7 89.7001 54.5 91.0001 54.1C89.6001 60 92.2001 63.3 92.3001 63.8C92.4001 63.6 92.8001 60.2 94.3001 59.1C93.3001 60.6 93.2001 61.8 93.3001 63.2C93.5001 64.3 93.6001 64.7 95.1001 66.8C95.1001 66.7 95.5001 64.2 96.2001 62.7C96.1001 64.9 98.0001 66.9 98.4001 67.5L98.2001 66.8C97.8001 65.6 97.3001 63.3 98.0001 62.5Z" fill="#D4B867"/>
<path d="M100.4 58.2C99.9 60.1 99.3 63.2 100 65C99.9 63 100.8 59.4 101.5 57.5C102.3 55.4 104.3 53.7001 107.3 53.3001C104.3 53.0001 101.3 54.7 100.4 58.2Z" fill="#D4B867"/>
<path d="M101.3 63.6999C101.3 63.9999 102 66.2 101.2 67.9C100.3 69.7 98.3001 69.8999 98.6001 71.1999C98.4001 69.4999 101.9 70 102.2 65.8C102.3 65 102.2 64.3 102.1 63.5C101.9 63 101.1 63.1999 101.3 63.6999Z" fill="#D4B867"/>
<path d="M110.4 71.9C110.6 72.8 111.4 73.6 112 74.4C111.5 73.6 111 72.6 110.4 71.9Z" fill="#D4B867"/>
<path d="M126.8 63.0001C127.6 63.0001 129.5 62.9001 131 63.9001C130.8 63.6001 128.1 62.5001 126.8 63.0001Z" fill="#D4B867"/>
<path d="M123.7 64.1C125.4 64.1 127 64.3 127.9 65.1C127.3 64.2 125 63.9 123.7 64.1Z" fill="#D4B867"/>
<path d="M72.2001 24.4C71.7001 23.8 70.8001 24.5 71.3001 25.1C76.3001 31.1 87.3001 32.5 91.4001 25.7C92.7001 23.5 93.0001 20.9 93.5001 18.5C92.9001 20.9 92.5001 23.5 91.1001 25.5C87.0001 31.9 76.7001 30.3 72.2001 24.4Z" fill="#D4B867"/>
<path d="M73.8001 18C72.8001 19.6 72.2001 21.9 73.0001 23.7C73.3001 24.3 73.8001 24.7 74.3001 25.1C73.4001 24.2 72.9001 23.3001 73.2001 21.9001C73.5001 20.2001 74.8001 18.8 74.8001 18.7C74.9001 18.3 74.2001 17.3 73.8001 18Z" fill="#D4B867"/>
<path d="M79.1001 19.8001C79.3001 20.1001 79.8001 20.1001 80.0001 19.8001C80.2001 19.6001 80.2001 19.2 79.9001 19C79.8001 18.9 78.4001 17.5001 76.4001 18.8001C75.5001 19.4001 74.7001 20.3001 74.2001 21.3001C75.6001 19.6001 77.8001 18.1001 79.1001 19.8001Z" fill="#D4B867"/>
<path d="M149.4 50.1999C149 49.8999 148.4 49.6 148.2 48.8C148.1 48 148.5 47.1999 149 46.5999C149.4 46.1999 148.7 45.6999 148.4 46.0999C147.5 47.3999 147.3 49.1 148.7 50C149.1 50.3 149.8 50.5 149.9 50.5L149.4 50.1999Z" fill="#D4B867"/>
<path d="M72.6 30.6C73.3 29.9 74.4 29.8 75.2 30.5C75.9 31.2 76 32.3 75.3 33.1C74.6 33.8 73.5 33.9 72.7 33.2C72 32.5 71.9 31.4 72.6 30.6Z" fill="#D4B867"/>
<path d="M65.9 32.4C66.6 33.4 67.7 34.0999 69 34.1999C68.3 35.1999 68 36.4999 68.3 37.6999C69.4 37.7999 70.5 37.6 71.4 36.9C71.6 38 72.3 38.8999 73.2 39.4999C75 38.1999 75.6 35.8 74.6 33.9C72.9 34.3 71.5 32.7999 72 31.0999C69.9 29.8999 67.3 30.4 65.9 32.4Z" fill="#D4B867"/>
<path d="M69.2 20.4C70.3 20.6 71 21.7 70.8 22.8C70.6 23.9 69.5 24.6 68.4 24.4C67.3 24.2 66.6 23.1 66.8 22C67 20.8 68.1 20.1 69.2 20.4Z" fill="#D4B867"/>
<path d="M63.7 14.8C63.1 16.1 63.1 17.5 63.7 18.9C62.2 18.8 60.9 19.3 59.8 20.2C60.3 21.3 61.2 22.2 62.3 22.8C61.4 23.7 60.8 24.8 60.7 26C63 27.1 65.7 26.2 67 24.1C65.6 22.7 66.3 20.4 68.2 19.9C68.3 17.3 66.4 15.1 63.7 14.8Z" fill="#D4B867"/>
<path d="M69.4 21.8C69.4 22.5 68.8 23 68.2 23C67.5 23 67 22.4 67 21.8C67 21.1 67.6 20.6 68.2 20.6C68.9 20.6 69.4 21.2 69.4 21.8Z" fill="#B41C2B"/>
<path d="M75.3 31.8C75.3 32.5 74.8 33.1 74.2 33.1C73.6 33.1 73.1 32.5 73.1 31.8C73.1 31.1 73.6 30.5 74.2 30.5C74.8 30.5 75.3 31.1 75.3 31.8Z" fill="#B41C2B"/>
<path d="M42.6 42.7C41.6 42.7 41.6 41.4 42.6 41.4C43.1 41.4 43.7 42.7 42.6 42.7Z" fill="#B41C2B"/>
<path d="M41.2001 43.8C40.7001 43.8 40.7001 43 41.2001 43C41.4001 43 41.7001 43.8 41.2001 43.8Z" fill="#B41C2B"/>
<path d="M41.1 45.6C40.5 45.6 40.5 44.8 41.1 44.8C41.4 44.8 41.7 45.6 41.1 45.6Z" fill="#B41C2B"/>
<path d="M58.9 54.6C58.9 55.2 58.4 55.8 57.7 55.8C57.1 55.8 56.5 55.3 56.5 54.6C56.5 53.9 57 53.4 57.7 53.4C58.4 53.5 58.9 54 58.9 54.6Z" fill="#B41C2B"/>
<path d="M53.9 58.2C53.9 58.7 53.5 59.1 53 59.1C52.5 59.1 52.1 58.7 52.1 58.2C52.1 57.7 52.5 57.3001 53 57.3001C53.4 57.2001 53.9 57.7 53.9 58.2Z" fill="#B41C2B"/>
<path d="M49 60.8C49 61.2 48.7 61.6 48.2 61.6C47.8 61.6 47.4 61.3 47.4 60.8C47.4 60.3 47.7 60 48.2 60C48.6 60 49 60.4 49 60.8Z" fill="#B41C2B"/>
<path d="M60.3 51.2C59.6 51.2 59.6 50.1 60.3 50.1C60.6 50.2 61 51.2 60.3 51.2Z" fill="#B41C2B"/>
<path d="M49.1 20C49.1 20 53.5 16.5 52.1 14C50.7 11.5 55.6 9.5 55.6 9.5C55.6 9.5 52.8 11.7 53.9 12.8C55 13.9 55.6 12.3 55.6 12.3C55.6 12.3 55.3 15.2 53.9 17.1C52.4 19 49.1 20 49.1 20Z" fill="#B41C2B"/>
<path d="M78.3001 24.8C78.3001 24.8 77.1001 25.6 78.3001 26.8C79.5001 28 85.3001 26.8 85.3001 26.8C85.3001 26.8 79.7001 26.7 78.3001 24.8Z" fill="#B41C2B"/>
<path d="M136.7 37.3C136.7 38 136.2 38.6 135.6 38.6C135 38.6 134.5 38 134.5 37.3C134.5 36.6 135 36 135.6 36C136.2 36 136.7 36.6 136.7 37.3Z" fill="#D4B867"/>
<path d="M120.2 41.5C120.2 41.9 119.9 42.2 119.5 42.2C119.1 42.2 118.8 41.9 118.8 41.5C118.8 41.1 119.1 40.8 119.5 40.8C119.8 40.8 120.2 41.1 120.2 41.5Z" fill="#B41C2B"/>
<path d="M111 47.9C111 48.3 110.6 48.7 110.2 48.7C109.8 48.7 109.4 48.3 109.4 47.9C109.4 47.5 109.8 47.1 110.2 47.1C110.7 47.1 111 47.5 111 47.9Z" fill="#B41C2B"/>
<path d="M113.8 51.6C113.8 52 113.4 52.4 113 52.4C112.6 52.4 112.2 52 112.2 51.6C112.2 51.2 112.6 50.8 113 50.8C113.5 50.8 113.8 51.2 113.8 51.6Z" fill="#B41C2B"/>
<path d="M108.1 44.1C107.2 44.1 107.2 42.8 108.1 42.8C108.5 42.8 109 44.1 108.1 44.1Z" fill="#B41C2B"/>
<path d="M106.6 39.3C105.9 39.3 105.9 38.3 106.6 38.3C106.9 38.3 107.3 39.3 106.6 39.3Z" fill="#B41C2B"/>
<path d="M106.3 35.3C105.6 35.3 105.6 34.2 106.3 34.2C106.6 34.2 107 35.3 106.3 35.3Z" fill="#B41C2B"/>
</svg>
