<?xml version="1.0"?>
<svg xmlns="http://www.w3.org/2000/svg" id="outline" height="512px" viewBox="0 0 512 512" width="512px"><g><path d="m216 64h64v16h-64z" data-original="#000000" class="active-path" data-old_color="#000000"/><path d="m168 64h24v16h-24z" data-original="#000000" class="active-path" data-old_color="#000000"/><path d="m256 112h24v16h-24z" data-original="#000000" class="active-path" data-old_color="#000000"/><path d="m120 112h112v16h-112z" data-original="#000000" class="active-path" data-old_color="#000000"/><path d="m312 376h80v16h-80z" data-original="#000000" class="active-path" data-old_color="#000000"/><path d="m208 376h80v16h-80z" data-original="#000000" class="active-path" data-old_color="#000000"/><path d="m120 376h64v16h-64z" data-original="#000000" class="active-path" data-old_color="#000000"/><path d="m368 424h24v16h-24z" data-original="#000000" class="active-path" data-old_color="#000000"/><path d="m280 424h64v16h-64z" data-original="#000000" class="active-path" data-old_color="#000000"/><path d="m120 424h136v16h-136z" data-original="#000000" class="active-path" data-old_color="#000000"/><path d="m160 256a96 96 0 1 0 96-96 96.10874 96.10874 0 0 0 -96 96zm176 0a80 80 0 1 1 -80-80 80.09041 80.09041 0 0 1 80 80z" data-original="#000000" class="active-path" data-old_color="#000000"/><path d="m64 456a40.04552 40.04552 0 0 0 40 40h304a40.04552 40.04552 0 0 0 40-40v-298.74512a39.74371 39.74371 0 0 0 -11.71582-28.28515l-101.25439-101.25293a39.734 39.734 0 0 0 -28.28467-11.7168h-202.74512a40.04552 40.04552 0 0 0 -40 40zm40-424h202.74512a24.203 24.203 0 0 1 5.25488.58081v79.41919a40.04552 40.04552 0 0 0 40 40h48v-16h-48a24.02718 24.02718 0 0 1 -24-24v-68.68555l96.97021 96.96875a23.84779 23.84779 0 0 1 7.02979 16.97168v90.74512h-64v16h64v192a24.0275 24.0275 0 0 1 -24 24h-304a24.0275 24.0275 0 0 1 -24-24v-192h64v-16h-64v-192a24.0275 24.0275 0 0 1 24-24z" data-original="#000000" class="active-path" data-old_color="#000000"/><path d="m227.56249 206.65625 8.52754 5.68506a48.01079 48.01079 0 0 0 -24.093 62.86181l14.66211-6.40624a32.01821 32.01821 0 0 1 17.47815-42.50782l-3.72669 11.18067 15.17872 5.06054 8-24a7.99943 7.99943 0 0 0 -3.15187-9.18652l-24-16z" data-original="#000000" class="active-path" data-old_color="#000000"/><path d="m256.41064 269.46973-8 24a7.99945 7.99945 0 0 0 3.15185 9.18652l24 16 8.875-13.3125-8.52749-5.68506a48.00815 48.00815 0 0 0 24.092-62.86181l-14.66113 6.40624a32.01821 32.01821 0 0 1 -17.47815 42.50782l3.72669-11.18067z" data-original="#000000" class="active-path" data-old_color="#000000"/></g> </svg>
