<?xml version="1.0"?>
<svg xmlns="http://www.w3.org/2000/svg" xmlns:xlink="http://www.w3.org/1999/xlink" version="1.1" id="Capa_1" x="0px" y="0px" width="512px" height="512px" viewBox="0 0 95.509 95.509" style="enable-background:new 0 0 95.509 95.509;" xml:space="preserve"><g><g>
	<g>
		<path d="M37.429,14.72c-0.059,4.212,0.188,8.998-0.411,13.762c-1.001,7.979-3.469,15.43-7.646,22.335    C24.029,59.651,16.718,66.459,8.12,72.01c-0.71,0.458-0.966,0.29-1.347-0.349C-9.046,45.099,4.045,10.867,33.591,1.583    c0.993-0.312,2.02-0.518,3.01-0.835c0.703-0.226,0.845-0.003,0.841,0.678C37.417,5.668,37.429,9.911,37.429,14.72z" data-original="#000000" class="active-path" data-old_color="#000000" fill="#FFFFFF"/>
		<path d="M58.257,14.769c0-4.92,0.017-9.063-0.016-13.206c-0.005-0.75,0.082-0.969,0.923-0.756    c9.687,2.448,17.84,7.409,24.438,14.892c6.207,7.039,9.977,15.247,11.366,24.521c0.847,5.645,0.724,11.293-0.556,16.861    c-1.176,5.123-2.912,10.049-5.677,14.573c-0.45,0.736-0.746,0.758-1.435,0.318c-4.646-2.967-8.979-6.343-12.785-10.312    c-8.269-8.619-13.587-18.764-15.505-30.639C58.101,25.362,58.281,19.678,58.257,14.769z" data-original="#000000" class="active-path" data-old_color="#000000" fill="#FFFFFF"/>
		<path d="M71.969,88.173c-13.722,8.565-33.366,9.213-48.472,0.026c9.947-6.202,18.016-14.205,24.208-24.293    C53.884,73.972,62.003,81.976,71.969,88.173z" data-original="#000000" class="active-path" data-old_color="#000000" fill="#FFFFFF"/>
	</g>
</g></g> </svg>
