<?xml version="1.0"?>
<svg xmlns="http://www.w3.org/2000/svg" id="Layer_1" enable-background="new 0 0 512 512" height="30" viewBox="0 0 512 512" width="30"><g><path d="m473.6 34.135h-435.2c-21.17 0-38.4 17.22-38.4 38.4v299.2c0 21.17 17.23 38.4 38.4 38.4h137.6v11.73c0 13.233-10.766 24-24 24h-16c-8.836 0-16 7.163-16 16s7.164 16 16 16h240c8.836 0 16-7.163 16-16s-7.164-16-16-16h-16c-13.234 0-24-10.767-24-24v-11.73h137.6c21.17 0 38.4-17.23 38.4-38.4v-299.2c0-21.18-17.23-38.4-38.4-38.4zm6.93 328.53c0 8.84-7.16 16-16 16h-417.06c-8.84 0-16-7.16-16-16v-281.07c0-8.83 7.16-16 16-16h417.06c8.84 0 16 7.17 16 16z" data-original="#000000" class="active-path" data-old_color="#000000" fill="#FFB229"/><path d="m63.47 97.595h385.06v249.07h-385.06z" data-original="#000000" class="active-path" data-old_color="#000000" fill="#FFB229"/></g> </svg>
