<svg id="Layer_1" data-name="Layer 1" xmlns="http://www.w3.org/2000/svg" viewBox="0 0 194.4 130.6"><defs><style>.cls-1,.cls-2{fill:#c1272d;}.cls-2{stroke:#fff;stroke-miterlimit:10;}.cls-3{fill:#fff;}.cls-4{fill:none;}</style></defs><title>CTV</title><path class="cls-1" d="M247.3,154V55.7H89.3V68.8h66.7l5.1-10.1h82.7v82.1H143.4L140.9,151h-80V90.1H57.5V154h71v8.9h-71v2.7H247.3v-2.7H170.8V154Zm-78.5,8.9H130.7V154h38.1Z" transform="translate(-52.8 -52.6)"/><polygon class="cls-2" points="102.2 19 81.1 95.6 10.6 95.6 10.6 37.5 8.1 37.5 8.1 98.4 88 98.4 90.5 88.3 191 88.3 191 6.2 108.3 6.2 103.2 16.3 36.5 16.3 36.5 19 102.2 19"/><polygon class="cls-3" points="10.6 37.5 10.6 95.6 81.1 95.6 102.2 19 36.5 19 36.5 37.5 10.6 37.5"/><path d="M70,182.7a17.3,17.3,0,0,1-4.1.4c-4.4,0-7.7-1.5-7.7-4.3s3.3-4.5,8.1-4.5a14.4,14.4,0,0,1,3.7.4l-.5.9a12.6,12.6,0,0,0-3.1-.4c-3.6,0-6,1.3-6,3.5s2.2,3.4,6,3.4a13.9,13.9,0,0,0,3.3-.4Z" transform="translate(-52.8 -52.6)"/><path d="M85.6,174.5v3.6h7.5v-3.6h2V183h-2v-4H85.6v4h-2v-8.5Z" transform="translate(-52.8 -52.6)"/><path d="M115.6,174.5V183h-2v-8.5Z" transform="translate(-52.8 -52.6)"/><path d="M134,183v-8.5h2.2l5,4.3a25.4,25.4,0,0,1,2.8,2.8h0a20.9,20.9,0,0,1-.2-3.5v-3.6h1.9V183h-2l-4.9-4.3a28.6,28.6,0,0,1-2.9-2.8h-.1a31.5,31.5,0,0,1,.2,3.5V183Z" transform="translate(-52.8 -52.6)"/><path d="M169.1,179h-6v3.1h6.7v.9h-8.7v-8.5h8.4v.9h-6.4v2.7h6Z" transform="translate(-52.8 -52.6)"/><path d="M194.4,179h-6v3.1h6.7v.9h-8.7v-8.5h8.4v.9h-6.4v2.7h6Z" transform="translate(-52.8 -52.6)"/><path d="M214.5,175.4h-4.7v-.9h11.5v.9h-4.7V183h-2Z" transform="translate(-52.8 -52.6)"/><path d="M239.4,183l-5.1-8.5h2.2l2.4,4.2a27.5,27.5,0,0,1,1.7,3.2h0a27.5,27.5,0,0,1,1.8-3.2l2.6-4.2h2.1l-5.5,8.5Z" transform="translate(-52.8 -52.6)"/><path class="cls-3" d="M231.9,72.9A91.9,91.9,0,0,1,206.4,79l1.6-5.5c2.4-8.4-4.2-6.9-4.2-6.9H192.2c6.3,3.7,5.2,9.6,3.9,12.8A112.2,112.2,0,0,1,163.6,75c18.5,15.9,43.3,15.6,57.3,13.7a92,92,0,0,1-18.5,19A40.8,40.8,0,0,1,196.4,93L183,92.1a73.1,73.1,0,0,0,12.5,20.1,43.4,43.4,0,0,1-15.2,5.1l-1.9,15.8a80.9,80.9,0,0,0,24.3-13.9A56.6,56.6,0,0,0,231,132.5a87.2,87.2,0,0,1-23.2-17.9,68.9,68.9,0,0,0,16.9-26.5,72.3,72.3,0,0,0,7.2-1.6C239.5,80.7,231.9,72.9,231.9,72.9Z" transform="translate(-52.8 -52.6)"/><path class="cls-1" d="M109.2,119.1H91.8l-3.1,7.1a11.2,11.2,0,0,0-1.1,3.9,2.3,2.3,0,0,0,1,1.8q1,.8,4.2,1v1.2H78.6v-1.2a7.6,7.6,0,0,0,3.6-1.3Q84,130,86,125.1l15.8-37H103l15.7,37.4q1.9,4.5,3.4,5.9a7,7,0,0,0,4.3,1.5v1.2H108.6v-1.2a6.6,6.6,0,0,0,3.6-.9,2.3,2.3,0,0,0,.9-1.9,13.8,13.8,0,0,0-1.3-4.6Zm-.9-2.5-7.6-18.2-7.8,18.2Z" transform="translate(-52.8 -52.6)"/><path class="cls-1" d="M85.1,54.1a2.8,2.8,0,0,0-1.3-1.5H76.2A32,32,0,0,0,52.8,77.1v8.1l.2.2a1.7,1.7,0,0,0,2,.7l1.3-.5a3.2,3.2,0,0,0,1-1.4c1-3.6,1.1-7.5,2.5-10.9,3.9-9.4,10.9-15.1,21.4-16C83.3,57,85.7,56.8,85.1,54.1Z" transform="translate(-52.8 -52.6)"/><path class="cls-1" d="M84.2,63.6l-.5-.8A4.8,4.8,0,0,0,81,61.5c-10.7.7-19.5,10.4-19.8,22.7l1,1.1a3.2,3.2,0,0,0,2.7.4,5.2,5.2,0,0,0,1.7-2.5C68.1,73,72.3,68.7,82.4,66.6a2.7,2.7,0,0,0,1.4-1.1C84,64.9,84.1,64.2,84.2,63.6Z" transform="translate(-52.8 -52.6)"/><path class="cls-1" d="M84.2,73.1a4.4,4.4,0,0,0-2.3-1.2c-5.6-.2-11.1,5.7-11.1,12.7.4.4,1.3,2.2,2.3,2.2a4.1,4.1,0,0,0,3-2.6c.6-4.2,2.7-6.5,7-7.3.5-.1,1-.8,1.4-1.6A3.9,3.9,0,0,0,84.2,73.1Z" transform="translate(-52.8 -52.6)"/><path class="cls-1" d="M82.9,87l1.1-.3c.7-1,1.2-1.7,1.1-2.3s-.9-1.3-1.7-1.8a4.3,4.3,0,0,0-1.8,0c-.8.7-1.6,1.4-1.6,2.2s.6,1.3,1.6,2.3A1.9,1.9,0,0,0,82.9,87Z" transform="translate(-52.8 -52.6)"/><rect class="cls-4" x="77.8" y="101.5" width="38.1" height="8.86"/></svg>