<?xml version="1.0"?>
<svg xmlns="http://www.w3.org/2000/svg" xmlns:xlink="http://www.w3.org/1999/xlink" version="1.1" id="Capa_1" x="0px" y="0px" width="512px" height="512px" viewBox="0 0 39.741 39.741" style="enable-background:new 0 0 39.741 39.741;" xml:space="preserve"><g><g>
	<path d="M30.037,20.293c-1.533-0.647-1.533-0.647-1.146-2.248c0.629-2.612-0.557-4.309-3.246-4.299   c-1.449,0.006-2.902,0.426-4.338,0.733c-0.732,0.158-1.43,0.479-2.339,0.796c0.143-1.244,0.342-2.222,0.348-3.197   c0.014-1.865-1.168-3.069-3.024-2.957C15.16,9.188,13.962,9.422,12.944,9.9c-5.584,2.627-9.74,6.747-12.207,12.42   c-0.557,1.278-0.774,2.813-0.732,4.219c0.101,3.289,2.088,5.541,4.722,7.187c5.614,3.506,11.688,4.051,17.988,2.362   c3.885-1.041,7.227-3.008,9.646-6.315C35.168,25.932,34.209,22.057,30.037,20.293z M26.154,29.062   c-1.152,1.66-2.732,2.797-4.559,3.588c-4.119,1.787-8.324,2.06-12.564,0.494c-0.948-0.351-1.859-0.892-2.674-1.496   c-3.037-2.26-3.371-5.922-0.816-8.729c2.297-2.522,5.288-3.661,8.577-4.145c0.792-0.119,1.6-0.139,2.291-0.195   c3.497,0.111,6.708,0.746,9.196,3.285C27.652,23.951,27.824,26.656,26.154,29.062z M39.739,14.237   c0.04,1.101-0.421,1.75-1.278,1.813c-0.886,0.062-1.473-0.587-1.524-1.695c-0.24-4.903-3.883-8.545-8.828-8.821   c-1.18-0.065-1.78-0.582-1.732-1.479c0.051-0.898,0.729-1.379,1.863-1.318C34.596,3.075,39.512,7.993,39.739,14.237z    M34.099,14.136c0.262,0.979-0.088,1.69-0.908,1.918c-0.83,0.229-1.517-0.181-1.778-1.156c-0.562-2.086-1.898-3.359-3.963-3.9   c-0.806-0.211-1.228-0.729-1.13-1.536c0.091-0.753,0.57-1.194,1.619-1.209c0.324,0.101,0.894,0.222,1.418,0.442   C31.814,9.735,33.406,11.552,34.099,14.136z M17.503,29.042c-1.5,1.654-4.154,2.197-6.189,1.269   c-2.611-1.195-3.074-4.236-0.937-6.152c1.079-0.967,2.353-1.408,3.81-1.492c0.621,0.146,1.264,0.23,1.858,0.443   C18.645,24.037,19.359,26.996,17.503,29.042z" data-original="#000000" class="active-path" data-old_color="#000000" fill="#FFFFFF"/>
</g></g> </svg>
